# xmcd
#
# Track frame offsets: 
#        150
#        14495
#        26514
#        39164
#        54455
#        67018
#        82161
#        97036
#        116578
#        132798
#        148056
#
# Disc length: 2169 seconds
#
# Revision: 1
# Processed by: cddbd v1.5.2PL0 Copyright (c) Steve Scherf et al.
# Submitted via: ExactAudioCopyFreeDBPlugin 1.0
#
DISCID=9708770b
DTITLE=Carramba - Carramba
DYEAR=1999
DGENRE=Country
TTITLE0=Černý klobouky
TTITLE1=Vandrák Joe
TTITLE2=Fůra centů
TTITLE3=Indián
TTITLE4=Koutek
TTITLE5=Babí léto
TTITLE6=Stará trať
TTITLE7=Lokálka
TTITLE8=Na cestách
TTITLE9=Hiawatha
TTITLE10=O moři
EXTD=
EXTT0=
EXTT1=
EXTT2=
EXTT3=
EXTT4=
EXTT5=
EXTT6=
EXTT7=
EXTT8=
EXTT9=
EXTT10=
PLAYORDER=
